<?xml version="1.0" encoding="UTF-8" standalone="no"?><!-- Generator: Gravit.io --><svg xmlns="http://www.w3.org/2000/svg" xmlns:xlink="http://www.w3.org/1999/xlink" style="isolation:isolate" viewBox="0 0 607 81" width="607pt" height="81pt"><defs><clipPath id="_clipPath_XbueBfOUY3zAmio6XfsWFsPhfk0op8k6"><rect width="607" height="81"/></clipPath></defs><g clip-path="url(#_clipPath_XbueBfOUY3zAmio6XfsWFsPhfk0op8k6)"><linearGradient id="_lgradient_3" x1="1.8524031338715645e-16" y1="-0.4267075575594164" x2="3.012795691785596e-16" y2="1.4683573031366506" gradientTransform="matrix(607.385,0,0,80.987,0,0)" gradientUnits="userSpaceOnUse"><stop offset="1.6666666666666667%" stop-opacity="0" style="stop-color:rgb(30,144,255)"/><stop offset="54.443512304250554%" stop-opacity="1" style="stop-color:rgb(30,144,255)"/><stop offset="98.75%" stop-opacity="0" style="stop-color:rgb(0,0,0)"/></linearGradient><path d=" M 0 79.921 L 0 4.899 L 51.212 4.899 L 51.212 19.632 L 18.136 19.632 L 18.136 35.018 L 47.946 35.018 L 47.946 49.768 L 18.136 49.768 L 18.136 79.921 L 0 79.921 L 0 79.921 Z  M 55.639 79.921 L 55.639 23.654 L 73.552 23.654 L 73.552 79.921 L 55.639 79.921 L 55.639 79.921 Z  M 64.613 17.105 C 62.103 17.105 59.937 16.262 58.132 14.594 C 56.327 12.927 55.416 10.899 55.416 8.526 C 55.416 6.17 56.327 4.143 58.132 2.492 C 59.937 0.824 62.103 0 64.613 0 C 67.157 0 69.323 0.824 71.111 2.492 C 72.917 4.143 73.811 6.17 73.811 8.526 C 73.811 10.899 72.917 12.927 71.111 14.594 C 69.323 16.262 67.157 17.105 64.613 17.105 Z  M 80.249 79.921 L 80.249 23.654 L 97.646 23.654 L 97.646 33.917 L 98.23 33.917 C 99.263 30.204 100.93 27.436 103.251 25.614 C 105.571 23.791 108.271 22.897 111.347 22.897 C 113.067 22.897 114.734 23.104 116.368 23.552 L 116.368 39.11 C 115.508 38.817 114.391 38.594 113.015 38.421 C 111.64 38.25 110.419 38.164 109.336 38.164 C 106.139 38.164 103.474 39.195 101.36 41.258 C 99.228 43.321 98.162 46.021 98.162 49.372 L 98.162 79.921 L 80.249 79.921 L 80.249 79.921 Z  M 145.345 80.987 C 136.509 80.987 129.546 78.408 124.491 73.251 C 119.42 68.094 116.893 61.028 116.893 52.002 C 116.893 46.192 118.028 41.121 120.332 36.753 C 122.618 32.388 125.867 29.001 130.028 26.577 C 134.205 24.136 139.139 22.933 144.794 22.933 C 150.124 22.933 154.833 24.032 158.943 26.232 C 163.034 28.45 166.249 31.7 168.57 35.963 C 170.891 40.243 172.042 45.47 172.042 51.642 L 172.042 56.112 L 134.548 56.112 L 134.548 56.592 C 134.548 60.031 135.528 62.798 137.523 64.896 C 139.516 67.011 142.233 68.059 145.672 68.059 C 148.026 68.059 150.055 67.561 151.791 66.563 C 153.527 65.583 154.731 64.156 155.418 62.3 L 171.87 62.782 C 170.839 68.299 168.002 72.718 163.361 76.019 C 158.719 79.336 152.719 80.987 145.344 80.987 L 145.345 80.987 Z  M 134.548 45.711 L 155.384 45.711 C 155.35 42.823 154.387 40.468 152.479 38.628 C 150.554 36.771 148.113 35.86 145.156 35.86 C 142.182 35.86 139.705 36.788 137.712 38.68 C 135.717 40.553 134.669 42.909 134.548 45.711 L 134.548 45.711 Z  M 208.566 23.655 L 208.566 36.84 L 197.838 36.84 L 197.838 79.921 L 179.959 79.921 L 179.959 36.84 L 172.378 36.84 L 172.378 23.655 L 179.959 23.655 L 179.959 20.8 C 179.959 14.285 181.747 9.42 185.323 6.206 C 188.916 2.99 193.558 1.392 199.3 1.392 C 201.775 1.392 204.114 1.581 206.33 1.959 C 208.566 2.337 210.199 2.664 211.248 2.956 L 208.393 16.073 C 207.724 15.884 206.932 15.713 206.004 15.54 C 205.076 15.385 204.182 15.299 203.34 15.299 C 201.259 15.299 199.815 15.763 199.025 16.692 C 198.234 17.62 197.838 18.893 197.838 20.508 L 197.838 23.654 L 208.566 23.654 L 208.566 23.655 Z  M 238.831 80.987 C 232.951 80.987 227.88 79.766 223.635 77.342 C 219.388 74.901 216.121 71.515 213.835 67.148 C 211.549 62.798 210.414 57.744 210.414 51.968 C 210.414 46.192 211.549 41.121 213.835 36.754 C 216.121 32.388 219.388 29.001 223.635 26.577 C 227.88 24.136 232.951 22.933 238.831 22.933 C 244.745 22.933 249.816 24.136 254.045 26.577 C 258.291 29.001 261.541 32.388 263.827 36.754 C 266.113 41.121 267.248 46.192 267.248 51.968 C 267.248 57.744 266.113 62.798 263.827 67.148 C 261.541 71.515 258.291 74.901 254.045 77.342 C 249.816 79.766 244.745 80.987 238.831 80.987 Z  M 238.934 67.475 C 242.132 67.475 244.625 66.031 246.377 63.142 C 248.131 60.271 249.009 56.506 249.009 51.865 C 249.009 47.206 248.131 43.424 246.377 40.519 C 244.625 37.631 242.132 36.187 238.934 36.187 C 235.617 36.187 233.072 37.631 231.301 40.519 C 229.531 43.424 228.654 47.206 228.654 51.865 C 228.654 56.506 229.531 60.271 231.301 63.142 C 233.072 66.031 235.617 67.475 238.934 67.475 Z  M 287.045 23.655 L 296.31 42.186 L 305.903 23.655 L 323.954 23.655 L 308.242 51.797 L 324.539 79.921 L 306.642 79.921 L 296.31 61.235 L 286.237 79.921 L 268.065 79.921 L 284.397 51.797 L 268.873 23.655 L 287.045 23.655 L 287.045 23.655 Z  M 340.902 79.921 L 340.902 23.655 L 360.577 23.655 C 364.496 23.655 367.733 24.337 370.272 25.679 C 372.825 27.019 374.721 28.825 375.959 31.093 C 377.209 33.35 377.828 35.851 377.828 38.597 C 377.828 41.022 377.403 43.02 376.551 44.593 C 375.701 46.166 374.579 47.416 373.2 48.332 C 371.82 49.247 370.324 49.918 368.712 50.356 L 368.712 50.911 C 370.427 51.027 372.155 51.619 373.895 52.728 C 375.636 53.824 377.093 55.397 378.266 57.447 C 379.44 59.498 380.033 62.012 380.033 64.977 C 380.033 67.801 379.388 70.328 378.1 72.585 C 376.823 74.841 374.799 76.62 372.026 77.949 C 369.267 79.263 365.67 79.921 361.234 79.921 L 340.902 79.921 L 340.902 79.921 Z  M 347.722 73.875 L 361.234 73.875 C 365.683 73.875 368.854 73.01 370.725 71.282 C 372.607 69.555 373.548 67.453 373.548 64.977 C 373.548 63.069 373.058 61.303 372.091 59.691 C 371.111 58.066 369.731 56.765 367.939 55.785 C 366.147 54.805 364.019 54.314 361.57 54.314 L 347.722 54.314 L 347.722 73.875 L 347.722 73.875 Z  M 347.722 48.384 L 360.358 48.384 C 363.439 48.384 366.03 47.494 368.158 45.715 C 370.285 43.948 371.343 41.575 371.343 38.597 C 371.343 36.135 370.479 34.033 368.764 32.293 C 367.036 30.565 364.315 29.701 360.577 29.701 L 347.722 29.701 L 347.722 48.384 L 347.722 48.384 Z  M 385.788 79.921 L 385.788 37.721 L 392.054 37.721 L 392.054 44.103 L 392.492 44.103 C 393.266 42.015 394.659 40.312 396.67 39.01 C 398.681 37.721 400.951 37.063 403.477 37.063 C 403.954 37.063 404.548 37.076 405.27 37.089 C 405.979 37.115 406.52 37.141 406.895 37.179 L 406.895 43.767 C 406.675 43.716 406.172 43.625 405.385 43.51 C 404.612 43.394 403.799 43.329 402.936 43.329 C 399.855 43.329 397.315 44.257 395.291 46.127 C 393.278 47.996 392.273 50.356 392.273 53.218 L 392.273 79.921 L 385.787 79.921 L 385.788 79.921 Z  M 427.168 80.797 C 423.351 80.797 420.013 79.895 417.15 78.077 C 414.287 76.272 412.057 73.732 410.445 70.47 C 408.847 67.208 408.047 63.404 408.047 59.046 C 408.047 54.65 408.847 50.808 410.445 47.532 C 412.057 44.257 414.287 41.705 417.15 39.9 C 420.013 38.082 423.351 37.179 427.168 37.179 C 430.972 37.179 434.311 38.082 437.173 39.9 C 440.049 41.705 442.28 44.257 443.877 47.532 C 445.489 50.808 446.289 54.65 446.289 59.046 C 446.289 63.404 445.489 67.208 443.877 70.47 C 442.28 73.732 440.049 76.272 437.173 78.077 C 434.31 79.895 430.972 80.797 427.168 80.797 Z  M 427.168 74.97 C 430.057 74.97 432.441 74.235 434.311 72.753 C 436.18 71.269 437.56 69.323 438.45 66.899 C 439.352 64.487 439.803 61.857 439.803 59.046 C 439.803 56.223 439.352 53.593 438.45 51.155 C 437.56 48.719 436.18 46.759 434.311 45.251 C 432.441 43.754 430.057 42.994 427.168 42.994 C 424.267 42.994 421.895 43.754 420.025 45.251 C 418.155 46.759 416.776 48.719 415.873 51.155 C 414.971 53.593 414.532 56.223 414.532 59.046 C 414.532 61.857 414.971 64.487 415.873 66.899 C 416.776 69.323 418.155 71.269 420.025 72.753 C 421.895 74.235 424.267 74.97 427.168 74.97 Z  M 461.185 79.921 L 448.331 37.721 L 455.139 37.721 L 464.255 70.032 L 464.693 70.032 L 473.705 37.721 L 480.629 37.721 L 489.539 69.916 L 489.977 69.916 L 499.093 37.721 L 505.9 37.721 L 493.045 79.921 L 486.676 79.921 L 477.445 47.507 L 476.787 47.507 L 467.555 79.921 L 461.185 79.921 L 461.185 79.921 Z  M 539.801 47.172 L 533.986 48.822 C 533.418 47.353 532.464 45.985 531.124 44.695 C 529.783 43.42 527.694 42.775 524.858 42.775 C 522.278 42.775 520.126 43.368 518.424 44.554 C 516.709 45.728 515.845 47.223 515.845 49.041 C 515.845 50.653 516.439 51.929 517.611 52.857 C 518.785 53.798 520.616 54.573 523.104 55.192 L 529.37 56.739 C 536.836 58.569 540.575 62.373 540.575 68.162 C 540.575 70.586 539.878 72.74 538.499 74.648 C 537.119 76.555 535.185 78.052 532.723 79.147 C 530.248 80.256 527.372 80.797 524.097 80.797 C 519.79 80.797 516.232 79.869 513.408 78 C 510.585 76.13 508.805 73.397 508.044 69.812 L 514.208 68.278 C 515.356 72.816 518.617 75.086 523.981 75.086 C 527.011 75.086 529.409 74.441 531.189 73.152 C 532.98 71.862 533.871 70.302 533.871 68.498 C 533.871 65.506 531.782 63.533 527.603 62.554 L 520.577 60.916 C 516.709 60.001 513.872 58.569 512.067 56.635 C 510.275 54.702 509.373 52.29 509.373 49.377 C 509.373 46.991 510.043 44.889 511.384 43.059 C 512.738 41.228 514.569 39.784 516.903 38.739 C 519.249 37.695 521.892 37.179 524.858 37.179 C 529.035 37.179 532.322 38.095 534.708 39.926 C 537.106 41.756 538.795 44.168 539.801 47.172 L 539.801 47.172 Z  M 563.477 80.797 C 559.416 80.797 555.91 79.895 552.969 78.09 C 550.03 76.285 547.774 73.758 546.188 70.509 C 544.602 67.26 543.815 63.469 543.815 59.149 C 543.815 54.83 544.602 51.014 546.188 47.713 C 547.774 44.399 549.991 41.821 552.84 39.965 C 555.69 38.107 559.017 37.179 562.821 37.179 C 565.025 37.179 567.191 37.54 569.331 38.275 C 571.472 39.01 573.431 40.196 575.185 41.834 C 576.939 43.471 578.344 45.637 579.388 48.332 C 580.432 51.027 580.961 54.34 580.961 58.273 L 580.961 61.019 L 550.326 61.019 C 550.468 65.532 551.744 68.975 554.156 71.372 C 556.567 73.771 559.674 74.97 563.477 74.97 C 566.03 74.97 568.222 74.428 570.054 73.332 C 571.884 72.224 573.212 70.586 574.037 68.382 L 580.29 70.134 C 579.311 73.332 577.325 75.899 574.36 77.858 C 571.394 79.818 567.771 80.797 563.477 80.797 L 563.477 80.797 Z  M 550.326 55.41 L 574.36 55.41 C 574.36 51.839 573.316 48.887 571.227 46.527 C 569.137 44.181 566.34 42.994 562.821 42.994 C 560.344 42.994 558.204 43.575 556.4 44.735 C 554.581 45.882 553.15 47.403 552.106 49.299 C 551.062 51.194 550.468 53.231 550.326 55.41 L 550.326 55.41 Z  M 586.278 79.921 L 586.278 37.721 L 592.544 37.721 L 592.544 44.103 L 592.982 44.103 C 593.757 42.015 595.149 40.312 597.16 39.01 C 599.171 37.721 601.441 37.063 603.967 37.063 C 604.444 37.063 605.038 37.076 605.76 37.089 C 606.47 37.115 607.011 37.141 607.385 37.179 L 607.385 43.767 C 607.165 43.717 606.662 43.626 605.876 43.51 C 605.102 43.394 604.29 43.329 603.426 43.329 C 600.345 43.329 597.805 44.257 595.781 46.127 C 593.768 47.996 592.763 50.356 592.763 53.218 L 592.763 79.921 L 586.278 79.921 L 586.278 79.921 Z " fill="url(#_lgradient_3)"/></g></svg>