<?xml version="1.0" standalone="no"?><!-- Generator: Gravit.io --><svg xmlns="http://www.w3.org/2000/svg" xmlns:xlink="http://www.w3.org/1999/xlink" style="isolation:isolate" viewBox="0 0 16 12.9" width="16" height="12.9"><defs><clipPath id="_clipPath_lEsStBStqpUViiziCSKtiYynT5isApXJ"><rect width="16" height="12.9"/></clipPath></defs><g clip-path="url(#_clipPath_lEsStBStqpUViiziCSKtiYynT5isApXJ)"><path d=" M 15.639 0 L 9.265 0 C 9.058 0 8.877 0 8.671 0.31 L 8.335 0.774 L 0.8 0.774 C 0.361 0.774 0 1.187 0 1.626 L 0 11.768 C 0 12.206 0.361 12.645 0.8 12.645 L 15.2 12.645 C 15.639 12.645 16 12.206 16 11.768 L 16 3.923 L 16 1.652 L 16 0.31 C 16 0.129 15.845 0 15.639 0 Z " fill="rgb(109,109,109)"/><path d=" M 15.665 10.426 C 15.871 10.271 16 10.039 16 9.781 L 16 3.923 L 16 1.652 L 16 0.31 C 16 0.129 15.845 0 15.639 0 L 9.265 0 C 9.058 0 8.877 0 8.671 0.31 L 8.335 0.774 L 0.8 0.774 C 0.387 0.774 0.052 1.11 0 1.497 L 15.665 10.426 Z " fill="rgb(86,86,86)"/><path d=" M 0.542 1.806 L 15.665 10.374 C 15.871 10.219 16 10.039 16 9.781 L 16 3.923 L 16 2.477 L 15.019 1.806 L 0.542 1.806 Z " fill="rgb(38,37,35)"/><rect x="1.29" y="1.806" width="13.419" height="9.806" transform="matrix(1,0,0,1,0,0)" fill="rgb(255,255,255)"/><rect x="8.258" y="1.806" width="6.452" height="9.806" transform="matrix(1,0,0,1,0,0)" fill="rgb(239,239,239)"/><path d=" M 16 12.129 C 16 12.568 15.639 12.903 15.2 12.903 L 0.8 12.903 C 0.361 12.903 0 12.568 0 12.129 L 0.258 3.948 C 0.258 3.51 0.619 3.097 1.058 3.097 L 14.968 3.097 C 15.406 3.097 15.768 3.51 15.768 3.948 L 16 12.129 Z " fill="rgb(255,176,0)"/><path d=" M 15.897 12.516 L 0.31 3.665 C 0.258 3.742 0.258 3.897 0.258 4 L 0 12.129 C 0 12.568 0.361 12.903 0.8 12.903 L 15.2 12.903 C 15.484 12.903 15.742 12.748 15.897 12.516 Z " fill="rgb(255,212,0)"/><path d=" M 10.761 8.052 C 10.71 7.923 10.606 7.819 10.452 7.794 L 8.981 7.587 L 8.335 6.271 C 8.284 6.142 8.155 6.065 8 6.065 C 7.845 6.065 7.716 6.142 7.665 6.271 L 7.019 7.587 L 5.548 7.794 C 5.419 7.819 5.29 7.923 5.239 8.052 C 5.187 8.181 5.239 8.335 5.342 8.439 L 6.4 9.471 L 6.142 10.916 C 6.116 11.045 6.168 11.2 6.297 11.277 C 6.4 11.355 6.555 11.381 6.684 11.303 L 8 10.606 L 9.316 11.303 C 9.368 11.329 9.419 11.355 9.497 11.355 C 9.574 11.355 9.652 11.329 9.729 11.277 C 9.832 11.2 9.91 11.045 9.884 10.916 L 9.626 9.471 L 10.684 8.439 C 10.761 8.335 10.787 8.181 10.761 8.052 Z " fill="rgb(255,176,0)"/><path d=" M 10.761 7.045 C 10.71 6.916 10.606 6.813 10.452 6.787 L 8.981 6.581 L 8.335 5.265 C 8.284 5.135 8.155 5.058 8 5.058 C 7.845 5.058 7.716 5.135 7.665 5.265 L 7.019 6.581 L 5.548 6.787 C 5.419 6.813 5.29 6.916 5.239 7.045 C 5.187 7.174 5.239 7.329 5.342 7.432 L 6.4 8.465 L 6.142 9.91 C 6.116 10.039 6.168 10.194 6.297 10.271 C 6.4 10.348 6.555 10.374 6.684 10.297 L 8 9.6 L 9.316 10.297 C 9.368 10.323 9.419 10.348 9.497 10.348 C 9.574 10.348 9.652 10.323 9.729 10.271 C 9.832 10.194 9.91 10.039 9.884 9.91 L 9.626 8.465 L 10.684 7.432 C 10.761 7.329 10.787 7.174 10.761 7.045 Z " fill="rgb(255,255,255)"/></g></svg>