<?xml version="1.0" standalone="no"?><!-- Generator: Gravit.io --><svg xmlns="http://www.w3.org/2000/svg" xmlns:xlink="http://www.w3.org/1999/xlink" style="isolation:isolate" viewBox="0 0 30 30" width="30" height="30"><defs><clipPath id="_clipPath_4UPjIFHnAGi5MsilknNPMH57XyIARnwK"><rect width="30" height="30"/></clipPath></defs><g clip-path="url(#_clipPath_4UPjIFHnAGi5MsilknNPMH57XyIARnwK)"><g id="Group"><rect x="0" y="0" width="30" height="30" transform="matrix(1,0,0,1,0,0)" fill="none"/><rect x="0" y="0" width="30" height="30" transform="matrix(1,0,0,1,0,0)" fill="none"/><path d=" M 0 15 C 0 6.721 6.721 0 15 0 C 23.279 0 30 6.721 30 15 C 30 23.279 23.279 30 15 30 C 6.721 30 0 23.279 0 15 Z  M 13.595 13.595 L 7.998 13.595 L 7.224 13.595 L 7.224 16.407 L 7.998 16.407 L 13.595 16.407 L 13.595 22.033 L 13.595 22.81 L 16.407 22.81 L 16.407 22.033 L 16.407 16.407 L 22.005 16.407 L 22.778 16.407 L 22.778 13.595 L 22.005 13.595 L 16.407 13.595 L 16.407 7.97 L 16.407 7.193 L 13.595 7.193 L 13.595 7.97 L 13.595 13.595 Z " fill="rgb(200,200,0)"/></g></g></svg>