<?xml version="1.0" standalone="no"?><!-- Generator: Gravit.io --><svg xmlns="http://www.w3.org/2000/svg" xmlns:xlink="http://www.w3.org/1999/xlink" style="isolation:isolate" viewBox="0 0 8 8" width="8" height="8"><defs><clipPath id="_clipPath_V8twmJLS3clqdryxsrJdBLBdTeFil20B"><rect width="8" height="8"/></clipPath></defs><g clip-path="url(#_clipPath_V8twmJLS3clqdryxsrJdBLBdTeFil20B)"><path d=" M 3.935 0.034 C 3.039 0.048 2.137 0.358 1.402 0.985 C 0.512 1.746 0 2.858 0 4.029 C 0 4.146 -0.001 4.264 0.016 4.393 L 0.033 4.55 L 1.081 4.55 L 1.065 4.355 C 0.889 2.731 2.061 1.275 3.685 1.099 C 4.683 0.991 5.666 1.401 6.299 2.181 L 5.495 2.985 L 7.826 2.985 L 7.826 0.654 L 7.043 1.436 C 6.237 0.491 5.087 0.016 3.935 0.034 L 3.935 0.034 Z  M 6.918 3.507 L 6.935 3.703 C 7.111 5.326 5.939 6.783 4.315 6.958 C 3.317 7.066 2.334 6.656 1.701 5.877 L 2.505 5.072 L 0.174 5.072 L 0.174 7.404 L 0.957 6.621 C 2.39 8.302 4.917 8.506 6.598 7.072 C 7.488 6.312 8 5.199 8 4.029 C 8 3.912 8.001 3.793 7.984 3.665 L 7.967 3.507 L 6.918 3.507 Z " fill="rgb(30,144,255)"/></g></svg>