<?xml version="1.0" standalone="no"?><!-- Generator: Gravit.io --><svg xmlns="http://www.w3.org/2000/svg" xmlns:xlink="http://www.w3.org/1999/xlink" style="isolation:isolate" viewBox="0 0 30 30" width="30" height="30"><defs><clipPath id="_clipPath_cRaBtmHW2FlaohI4mkyuU2whLogUx9pN"><rect width="30" height="30"/></clipPath></defs><g clip-path="url(#_clipPath_cRaBtmHW2FlaohI4mkyuU2whLogUx9pN)"><path d=" M 0 15 C 0 6.721 6.721 0 15 0 C 23.279 0 30 6.721 30 15 C 30 23.279 23.279 30 15 30 C 6.721 30 0 23.279 0 15 Z  M 12.218 14.923 L 7.651 19.451 L 6.251 20.951 L 9.051 23.751 L 10.451 22.351 L 15.049 17.754 L 19.551 22.256 L 20.951 23.656 L 23.751 20.856 L 22.351 19.356 L 17.88 14.923 L 22.351 10.451 L 23.751 9.051 L 20.951 6.251 L 19.551 7.651 L 15.049 12.116 L 10.451 7.556 L 9.051 6.156 L 6.251 8.956 L 7.651 10.356 L 12.218 14.923 L 12.218 14.923 L 12.218 14.923 Z " fill="rgb(255,0,0)"/></g></svg>