<?xml version="1.0" ?><!DOCTYPE svg  PUBLIC '-//W3C//DTD SVG 1.1//EN'  'http://www.w3.org/Graphics/SVG/1.1/DTD/svg11.dtd'><svg enable-background="new 0 0 256 256" version="1.1" viewBox="0 0 256 256" xml:space="preserve" xmlns="http://www.w3.org/2000/svg" xmlns:xlink="http://www.w3.org/1999/xlink"><g id="flickr"/><g id="Tumblr"/><g id="Vimeo"/><g id="Pinterest"/><g id="youtube"/><g id="Instagram"/><g id="LinkedIn"/><g id="Twitter"/><g id="Facebok"/><g id="bg"/><g id="adaption_layer"/><g id="block"/><g id="_x33_D_LAYER_copy"><g><g><path d="M243.7,246H12.3c-3.3,0-6-2.7-6-6V16c0-3.3,2.7-6,6-6h231.4c3.3,0,6,2.7,6,6v224     C249.7,243.3,247,246,243.7,246z" fill="#F26722"/><path d="M243.7,228.5H12.3c-3.3,0-6-2.7-6-6V240c0,3.3,2.7,6,6,6h231.4c3.3,0,6-2.7,6-6v-17.5     C249.7,225.8,247,228.5,243.7,228.5z" opacity="0.3"/></g><g><g opacity="0.7"><path d="M164,174c0-51.3-40-93-89.2-93V88c22.3,0,42.7,8.6,58.3,22.7c2.2,1.9,4.2,4,6.2,6.2      c3.4,3.8,6.6,7.8,9.4,12.2c0.8,1.2,1.6,2.5,2.3,3.8c1.1,1.9,2.2,3.9,3.2,5.9c0.7,1.3,1.3,2.7,1.9,4.1c0.3,0.7,0.6,1.4,0.9,2.1      c0.6,1.4,1.1,2.8,1.6,4.2c0.3,0.7,0.5,1.4,0.7,2.1c3,9.4,4.7,19.4,4.7,29.8v0h21.2V174H164z" fill="#CCCCCC"/><path d="M111.3,135.9c-9.8-10.2-22.7-15.8-36.5-15.8v6.9c13.8,0,26.7,5.6,36.5,15.8c5.5,5.7,9.6,12.5,12.1,19.9      c2,5.8,3,11.9,3,18.2v0h21.3V174h-21.3C126.4,159.6,121.1,146,111.3,135.9z" fill="#CCCCCC"/><path d="M89.5,174c-6.6,0-12.2-4.5-14-10.7c-0.4-1.4-0.7-3-0.7-4.5v0v6.9c0,8.4,6.6,15.3,14.7,15.3      c8.1,0,14.7-6.8,14.7-15.3v-6.9C104.2,167.2,97.6,174,89.5,174z" fill="#CCCCCC"/></g><g><g><path d="M74.8,59c60.9,0,110.4,51.6,110.4,115       H164c0-51.3-40-93-89.2-93V59z" fill="#FCFCFC" stroke="#FDFDFE" stroke-miterlimit="10" stroke-width="0.2835"/><path d="M74.8,98.1c40.2,0,72.9,34.1,72.9,75.9       h-21.3c0-14.4-5.4-28-15.1-38.1c-9.8-10.2-22.7-15.8-36.5-15.8V98.1z" fill="#FCFCFC" stroke="#FDFDFE" stroke-miterlimit="10" stroke-width="0.2835"/></g><path d="M89.5,143.5c8.1,0,14.7,6.9,14.7,15.3      c0,8.4-6.6,15.3-14.7,15.3c-8.1,0-14.7-6.8-14.7-15.3C74.8,150.4,81.4,143.5,89.5,143.5z" fill="#FCFCFC" stroke="#FDFDFE" stroke-miterlimit="10" stroke-width="0.2835"/></g></g></g></g><g id="Grid"/></svg>