<?xml version="1.0" standalone="no"?><!-- Generator: Gravit.io --><svg xmlns="http://www.w3.org/2000/svg" xmlns:xlink="http://www.w3.org/1999/xlink" style="isolation:isolate" viewBox="0 0 16 16" width="16" height="16"><defs><clipPath id="_clipPath_Mj2MQPJlmBPFSTjlpmC1OTmYa7pJyfTc"><rect width="16" height="16"/></clipPath></defs><g clip-path="url(#_clipPath_Mj2MQPJlmBPFSTjlpmC1OTmYa7pJyfTc)"><rect x="0" y="0" width="16" height="16" transform="matrix(1,0,0,1,0,0)" fill="none"/><g id="Group"><path d=" M 15.697 16 C 15.88 16 16 15.736 16 15.554 L 16 7.943 C 16 3.556 12.428 0 8.004 0 C 3.579 0 0 3.614 0 8 C 0 12.386 3.594 16 8.019 16 L 15.697 16 Z " fill="rgb(30,144,255)"/><path d=" M 4.333 12.988 C 5.065 12.986 5.657 12.39 5.655 11.657 C 5.653 10.925 5.058 10.332 4.326 10.333 C 3.593 10.334 3 10.928 3 11.661 C 3.002 12.395 3.598 12.989 4.333 12.988 L 4.333 12.988 Z " fill="rgb(255,255,255)"/><path d=" M 7.677 12.998 L 9.601 12.998 C 9.601 9.358 6.641 6.398 3.002 6.398 L 3.002 8.314 C 4.243 8.315 5.433 8.809 6.31 9.687 C 7.187 10.566 7.678 11.756 7.677 12.998 Z " fill="rgb(255,255,255)"/><path d=" M 11.076 13 L 13 13 C 13 7.486 8.516 3 3.005 3 L 3.005 4.917 C 7.455 4.917 11.076 8.543 11.076 13 Z " fill="rgb(255,255,255)"/></g></g></svg>