<?xml version="1.0" standalone="no"?><!-- Generator: Gravit.io --><svg xmlns="http://www.w3.org/2000/svg" xmlns:xlink="http://www.w3.org/1999/xlink" style="isolation:isolate" viewBox="0 0 16 16" width="16" height="16"><defs><clipPath id="_clipPath_hyL1Fy2AcHPti0tIXiOWFxhxFFVeTWyZ"><rect width="16" height="16"/></clipPath></defs><g clip-path="url(#_clipPath_hyL1Fy2AcHPti0tIXiOWFxhxFFVeTWyZ)"><path d=" M 15.697 0 C 15.88 0 16 0.264 16 0.446 L 16 8.057 C 16 12.444 12.428 16 8.004 16 C 3.579 16 0 12.386 0 8 C 0 3.614 3.594 0 8.019 0 L 15.697 0 Z " fill="rgb(255,255,255)"/><path d=" M 3.012 11.667 C 3.014 10.935 3.61 10.343 4.343 10.345 C 5.075 10.347 5.668 10.942 5.667 11.674 C 5.666 12.407 5.072 13 4.339 13 C 3.605 12.998 3.011 12.402 3.012 11.667 L 3.012 11.667 Z " fill="rgb(255,153,0)"/><path d=" M 3.002 8.323 L 3.002 6.399 C 6.642 6.399 9.602 9.359 9.602 12.998 L 7.686 12.998 C 7.685 11.757 7.191 10.567 6.313 9.69 C 5.434 8.813 4.244 8.322 3.002 8.323 Z " fill="rgb(255,153,0)"/><path d=" M 3 4.924 L 3 3 C 8.514 3 13 7.484 13 12.995 L 11.083 12.995 C 11.083 8.545 7.457 4.924 3 4.924 Z " fill="rgb(255,153,0)"/></g></svg>